#!OML:ASF F:\VICON\USERDATA\INSTALL\rory3\rory3.ASF
:FULLY-SPECIFIED
:DEGREES
1079
root 0.720825 17.5662 -8.08955 -540.291 -1.62603 -185.164
lowerback 23.9735 -0.65022 -7.33054
upperback 1.14105 -3.37336 -0.618611
thorax -11.8055 -1.35978 4.66358
lowerneck -12.0345 -0.870182 -0.900937
upperneck 25.2799 -0.0024848 1.13629
head 10.0151 0.527839 0.63774
rclavicle -1.49089e-015 -1.48095e-014
rhumerus -36.1854 6.02397 -85.9403
rradius 52.0101
rwrist -6.09927
rhand -4.59234 7.09274
rfingers 7.12502
rthumb 21.1851 -21.7697
lclavicle -1.49089e-015 -1.48095e-014
lhumerus -17.1651 10.412 79.377
lradius 67.3118
lwrist 21.8393
lhand -9.68501 56.0559
lfingers 7.12502
lthumb 16.287 85.3919
rfemur -30.9129 -6.9846 15.9317
rtibia 67.7294
rfoot -16.128 -15.5872
rtoes 13.1645
lfemur -12.3719 -8.88296 -28.4908
ltibia 35.7606
lfoot -16.4946 0.314459
ltoes -8.40095
1080
root 0.724461 17.557 -8.28267 -540.409 -1.26153 -185.689
lowerback 23.3172 -0.585346 -7.86325
upperback 1.4124 -3.39801 -0.721152
thorax -11.1098 -1.40384 4.81854
lowerneck -11.9702 -0.769592 -1.16018
upperneck 24.9705 0.117112 1.28603
head 9.89017 0.559382 0.742878
rclavicle -3.40295e-014 6.75868e-015
rhumerus -36.1612 6.43181 -85.6308
rradius 52.1194
rwrist -6.01962
rhand -5.04 7.88826
rfingers 7.12502
rthumb 20.755 -21.0218
lclavicle -3.40295e-014 6.75868e-015
lhumerus -16.7797 10.5186 78.7867
lradius 68.6268
lwrist 21.5726
lhand -10.4126 52.6047
lfingers 7.12502
lthumb 15.5863 81.9967
rfemur -31.7623 -6.94002 15.3008
rtibia 65.9733
rfoot -16.4765 -15.4696
rtoes 12.257
lfemur -11.2096 -8.77846 -29.2461
ltibia 35.3546
lfoot -16.8153 0.818901
ltoes -8.73667
1081
root 0.749262 17.5608 -8.47163 -540.605 -0.559101 -185.44
lowerback 23.5826 -0.419436 -8.01299
upperback 1.09267 -3.20138 -0.52212
thorax -11.6276 -1.24527 5.08775
lowerneck -11.2941 -0.722795 -1.47251
upperneck 24.9849 0.296063 1.3161
head 9.76329 0.636921 0.828201
rclavicle 3.03954e-014 -1.46604e-014
rhumerus -37.2738 6.89105 -85.3299
rradius 52.4373
rwrist -5.93171
rhand -5.52364 8.86923
rfingers 7.12502
rthumb 20.2902 -20.0909
lclavicle 3.03954e-014 -1.46604e-014
lhumerus -17.3082 10.5099 78.0742
lradius 69.8388
lwrist 21.1085
lhand -8.40237 55.0495
lfingers 7.12502
lthumb 17.5217 84.2799
rfemur -32.4901 -6.0228 15.745
rtibia 63.8878
rfoot -16.5603 -15.8011
rtoes 11.9697
lfemur -10.1097 -8.37833 -28.9965
ltibia 34.9051
lfoot -16.9142 1.24714
ltoes -9.29396
1082
root 0.755714 17.5675 -8.65262 -540.693 -0.177611 -185.647
lowerback 23.8202 -0.435353 -8.35291
upperback 1.02262 -3.35638 -0.588882
thorax -11.8051 -1.29048 5.26993
lowerneck -11.5657 -0.652763 -1.45953
upperneck 25.2491 0.343277 1.55163
head 9.90853 0.689399 0.918692
rclavicle 5.0628e-015 -1.26228e-014
rhumerus -37.708 6.9347 -85.1781
rradius 53.0071
rwrist -4.87932
rhand -5.37081 9.0403
rfingers 7.12502
rthumb 20.4371 -19.9042
lclavicle 5.0628e-015 -1.26228e-014
lhumerus -17.3963 10.6899 77.0534
lradius 71.1752
lwrist 20.8382
lhand -6.38112 58.1425
lfingers 7.12502
lthumb 19.4659 87.1881
rfemur -33.1522 -5.77441 15.5271
rtibia 61.6894
rfoot -16.3199 -15.7419
rtoes 12.4747
lfemur -8.99704 -8.19252 -29.3391
ltibia 34.2554
lfoot -17.0359 1.67349
ltoes -10.3366
1083
root 0.724954 17.5529 -8.83112 -540.604 -0.246619 -186.622
lowerback 23.0187 -0.552619 -8.72907
upperback 1.5132 -3.61264 -0.987966
thorax -10.7746 -1.50547 5.05927
lowerneck -11.8867 -0.437101 -0.87194
upperneck 24.5436 0.495535 1.13451
head 9.71687 0.720384 0.677123
rclavicle 7.15625e-015 -1.47598e-014
rhumerus -37.182 6.62829 -84.8164
rradius 53.256
rwrist -4.20026
rhand -5.51321 9.38579
rfingers 7.12502
rthumb 20.3003 -19.5733
lclavicle 7.15625e-015 -1.47598e-014
lhumerus -16.5232 10.6671 76.3133
lradius 72.4437
lwrist 20.4945
lhand -7.79976 56.2466
lfingers 7.12502
lthumb 18.1015 85.4243
rfemur -33.8933 -6.64336 14.222
rtibia 59.4729
rfoot -16.0246 -14.6971
rtoes 13.4761
lfemur -7.89212 -8.32171 -30.7367
ltibia 33.5578
lfoot -17.2912 1.99511
ltoes -9.78824
1084
root 0.726093 17.561 -9.02355 -540.549 0.077979 -186.377
lowerback 22.8979 -1.24667 -8.58647
upperback 1.38285 -3.50708 -0.964249
thorax -10.8169 -1.04797 4.88627
lowerneck -12.1769 -0.290169 -0.876413
upperneck 24.9969 0.708857 1.27878
head 9.93154 0.848702 0.762358
rclavicle -1.70209e-015 -4.64659e-014
rhumerus -37.6225 6.63101 -84.5518
rradius 53.3181
rwrist -3.65876
rhand -5.96829 9.59712
rfingers 7.12502
rthumb 19.8628 -19.4079
lclavicle -1.70209e-015 -4.64659e-014
lhumerus -16.8248 10.552 75.4054
lradius 73.8573
lwrist 20.4955
lhand -9.09869 54.7842
lfingers 7.12502
lthumb 16.8514 84.073
rfemur -34.4575 -6.47982 14.4887
rtibia 56.9196
rfoot -15.3998 -14.2894
rtoes 13.7395
lfemur -6.76211 -8.20173 -30.6163
ltibia 32.773
lfoot -17.6481 2.28168
ltoes -9.07911
1085
root 0.753739 17.5748 -9.21704 -540.503 0.397743 -186.374
lowerback 23.1873 -1.17881 -8.81773
upperback 0.919017 -3.58491 -0.901212
thorax -11.4834 -1.04022 5.1425
lowerneck -11.5168 -0.357923 -1.00359
upperneck 25.0532 0.648786 1.4607
head 9.82442 0.851338 0.840277
rclavicle 6.16108e-014 -2.03257e-014
rhumerus -38.7227 6.57228 -84.3082
rradius 53.6826
rwrist -2.96454
rhand -6.17267 9.4056
rfingers 7.12502
rthumb 19.6664 -19.6196
lclavicle 6.16108e-014 -2.03257e-014
lhumerus -17.6522 10.4951 74.4225
lradius 75.2417
lwrist 20.3318
lhand -9.56268 54.1101
lfingers 7.12502
lthumb 16.4047 83.4364
rfemur -35.0067 -5.81842 14.5697
rtibia 54.2663
rfoot -14.404 -14.5709
rtoes 12.521
lfemur -5.70411 -7.88576 -30.5747
ltibia 31.9492
lfoot -17.7251 2.27391
ltoes -9.71434
1086
root 0.766376 17.585 -9.414 -540.504 0.697014 -186.476
lowerback 23.645 -1.14543 -8.97116
upperback 0.328188 -3.72676 -0.85834
thorax -12.3949 -1.04726 5.3673
lowerneck -10.6078 -0.309171 -0.857084
upperneck 25.0421 0.826303 1.17405
head 9.64574 0.942281 0.733772
rclavicle -9.11925e-015 1.16786e-015
rhumerus -40.009 6.53054 -84.0271
rradius 53.8413
rwrist -2.35236
rhand -6.50122 9.66783
rfingers 7.12502
rthumb 19.3505 -19.3894
lclavicle -9.11925e-015 1.16786e-015
lhumerus -19.2326 10.4843 73.4464
lradius 77.1947
lwrist 20.1215
lhand -9.28391 53.9918
lfingers 7.12502
lthumb 16.6731 83.2957
rfemur -35.3199 -5.48403 14.4303
rtibia 51.4289
rfoot -13.2939 -14.3697
rtoes 12.2619
lfemur -4.54938 -7.57675 -30.764
ltibia 31.1272
lfoot -17.6578 2.47248
ltoes -12.1536
1087
root 0.776492 17.5864 -9.60915 -540.565 1.1194 -186.459
lowerback 22.715 -1.11191 -9.04383
upperback 0.863876 -3.51612 -0.754814
thorax -11.2735 -1.01396 5.3949
lowerneck -10.973 -0.233999 -1.06952
upperneck 24.7595 0.870997 1.30539
head 9.61315 0.929716 0.815402
rclavicle -1.20358e-016 1.99716e-015
rhumerus -39.2763 5.94928 -83.2012
rradius 53.6249
rwrist -0.656976
rhand -6.41116 9.59906
rfingers 7.12502
rthumb 19.4371 -19.4495
lclavicle -1.20358e-016 1.99716e-015
lhumerus -18.2316 11.0043 73.0063
lradius 78.1206
lwrist 20.168
lhand -8.68934 53.156
lfingers 7.12502
lthumb 17.2455 82.4108
rfemur -35.4501 -5.04077 14.3861
rtibia 48.5487
rfoot -12.2396 -13.8606
rtoes 13.6114
lfemur -3.23859 -7.36991 -30.9067
ltibia 30.1854
lfoot -17.6174 2.74628
ltoes -11.7131
1088
root 0.782376 17.5852 -9.8043 -540.617 1.30503 -186.549
lowerback 22.1179 -1.25618 -9.07819
upperback 1.31008 -3.5828 -0.776478
thorax -10.4189 -1.09311 5.36337
lowerneck -11.5379 -0.066908 -0.930537
upperneck 24.5164 1.01046 1.2423
head 9.63365 0.968471 0.782147
rclavicle -6.38673e-015 7.38299e-015
rhumerus -38.8255 5.48124 -82.7268
rradius 53.8665
rwrist -0.0798477
rhand -6.22653 9.03425
rfingers 7.12502
rthumb 19.6146 -19.9963
lclavicle -6.38673e-015 7.38299e-015
lhumerus -18.1213 11.8659 72.2112
lradius 79.674
lwrist 21.074
lhand -7.89229 51.8921
lfingers 7.12502
lthumb 18.0125 81.0781
rfemur -35.4319 -4.90278 14.1907
rtibia 45.7154
rfoot -11.3679 -13.2359
rtoes 16.2932
lfemur -1.86344 -7.18494 -31.1647
ltibia 29.1154
lfoot -17.6382 3.05345
ltoes -12.9579
